<svg width="512" height="512" viewBox="0 0 512 512" xmlns="http://www.w3.org/2000/svg"><defs><clipPath id="satori_bc-id"><path x="0" y="0" width="512" height="512" d="M256,0 h0 a256,256 0 0 1 256,256 v0 a256,256 0 0 1 -256,256 h0 a256,256 0 0 1 -256,-256 v0 a256,256 0 0 1 256,-256"/></clipPath></defs><mask id="satori_om-id"><rect x="8" y="8" width="496" height="496" fill="#fff"/><path width="512" height="512" fill="none" stroke="#000" stroke-width="16" d="M74.981,74.981 A256,256 0 0 1 256,0 h0 a256,256 0 0 1 256,256 v0 a256,256 0 0 1 -256,256 h0 a256,256 0 0 1 -256,-256 v0 A256,256 0 0 1 74.981,74.981"/></mask><path x="0" y="0" width="512" height="512" fill="#fff" d="M256,0 h0 a256,256 0 0 1 256,256 v0 a256,256 0 0 1 -256,256 h0 a256,256 0 0 1 -256,-256 v0 a256,256 0 0 1 256,-256"/><path width="512" height="512" clip-path="url(#satori_bc-id)" fill="none" stroke="#27282d" stroke-width="16" d="M74.981,74.981 A256,256 0 0 1 256,0 h0 a256,256 0 0 1 256,256 v0 a256,256 0 0 1 -256,256 h0 a256,256 0 0 1 -256,-256 v0 A256,256 0 0 1 74.981,74.981"/><mask id="satori_om-id-0"><rect x="70" y="156" width="372" height="200" fill="#fff"/></mask><path fill="#27282d" d="M101.1 197.2L80.7 197.2C88 231.2 101.6 266.1 123.6 299.9L140.6 299.9C162.5 266.3 176.2 231.0 183.1 197.2L164.3 197.2C158.9 227.3 148.1 255.2 133.5 280.2L131.8 280.2C117.3 255.2 106.5 227.3 101.1 197.2ZM299.1 299.9L299.1 224.1C299.1 204.3 286.7 194.9 258.6 194.9C242.7 194.9 226.9 198.2 214.5 202.2L211.1 220.7C228.1 214.4 244.1 211.4 258.6 211.4C270.7 211.4 279.8 215.7 279.8 228.1L279.8 240.0C252.7 240.7 207.5 245.5 207.5 274.3C207.5 289.8 219 302.3 241 302.3C250.6 302.3 264.4 299.6 278.1 291.2L279.8 291.2L279.8 299.9ZM226.7 271.0C226.7 265.0 229.3 260.0 239.8 257.0C250.5 253.9 268 253.6 279.8 253.8L279.8 279.9C268.6 285.2 256.6 287.9 248.1 287.9C234.6 287.9 226.7 280.8 226.7 271.0ZM335.4 197.2L333.4 212.5L370.1 212.5L370.1 284.6L332.1 284.6L334.1 299.9L426.4 299.9L428.4 284.6L389.3 284.6L389.3 197.2ZM362.1 158.4C362.1 166.4 367.8 171.3 376 171.3C384.2 171.3 389.9 166.4 389.9 158.4C389.9 150.4 384.2 145.6 376 145.6C367.8 145.6 362.1 150.4 362.1 158.4Z "/></svg>