<?xml version="1.0"?>
<svg width="590" height="590"
     xmlns="http://www.w3.org/2000/svg"
     shape-rendering="crispEdges">
<polygon points="278,301 265,290 261,324" style="fill:rgb(68,25,55)"/>
<polygon points="265,290 244,303 261,324" style="fill:rgb(64,23,55)"/>
<polygon points="261,324 284,325 278,301" style="fill:rgb(248,198,88)"/>
<polygon points="244,303 232,318 261,324" style="fill:rgb(249,200,88)"/>
<polygon points="246,272 230,296 244,303" style="fill:rgb(242,195,90)"/>
<polygon points="244,303 230,296 232,318" style="fill:rgb(241,192,87)"/>
<polygon points="261,324 277,337 284,325" style="fill:rgb(247,197,87)"/>
<polygon points="245,346 277,337 261,324" style="fill:rgb(254,202,89)"/>
<polygon points="271,262 246,272 265,290" style="fill:rgb(184,168,182)"/>
<polygon points="265,290 246,272 244,303" style="fill:rgb(58,17,58)"/>
<polygon points="232,318 245,346 261,324" style="fill:rgb(248,196,89)"/>
<polygon points="230,296 220,320 232,318" style="fill:rgb(49,7,44)"/>
<polygon points="232,318 220,320 245,346" style="fill:rgb(55,11,44)"/>
<polygon points="321,277 271,262 278,301" style="fill:rgb(253,204,90)"/>
<polygon points="278,301 271,262 265,290" style="fill:rgb(78,32,55)"/>
<polygon points="231,267 219,283 230,296" style="fill:rgb(51,8,47)"/>
<polygon points="230,296 219,283 220,320" style="fill:rgb(51,11,56)"/>
<polygon points="271,262 254,258 246,272" style="fill:rgb(78,30,52)"/>
<polygon points="246,272 231,267 230,296" style="fill:rgb(245,197,93)"/>
<polygon points="254,258 231,267 246,272" style="fill:rgb(246,198,87)"/>
<polygon points="277,337 309,336 284,325" style="fill:rgb(82,40,49)"/>
<polygon points="284,325 322,306 278,301" style="fill:rgb(255,204,88)"/>
<polygon points="315,366 309,336 277,337" style="fill:rgb(248,198,89)"/>
<polygon points="245,346 264,365 277,337" style="fill:rgb(248,184,87)"/>
<polygon points="309,336 322,306 284,325" style="fill:rgb(247,196,87)"/>
<polygon points="220,320 243,364 245,346" style="fill:rgb(50,8,55)"/>
<polygon points="245,346 243,364 264,365" style="fill:rgb(53,6,47)"/>
<polygon points="322,306 321,277 278,301" style="fill:rgb(251,202,90)"/>
<polygon points="270,212 236,243 254,258" style="fill:rgb(253,207,103)"/>
<polygon points="254,258 236,243 231,267" style="fill:rgb(235,186,88)"/>
<polygon points="231,267 190,269 219,283" style="fill:rgb(53,26,80)"/>
<polygon points="270,212 254,258 271,262" style="fill:rgb(253,203,89)"/>
<polygon points="322,306 328,282 321,277" style="fill:rgb(59,16,41)"/>
<polygon points="243,364 262,379 264,365" style="fill:rgb(54,12,56)"/>
<polygon points="264,365 315,366 277,337" style="fill:rgb(254,192,89)"/>
<polygon points="181,289 192,327 220,320" style="fill:rgb(143,95,119)"/>
<polygon points="220,320 192,327 243,364" style="fill:rgb(149,101,120)"/>
<polygon points="219,407 271,402 262,379" style="fill:rgb(251,199,83)"/>
<polygon points="181,289 220,320 219,283" style="fill:rgb(180,127,128)"/>
<polygon points="315,366 333,324 309,336" style="fill:rgb(254,205,89)"/>
<polygon points="309,336 333,324 322,306" style="fill:rgb(252,202,90)"/>
<polygon points="322,306 341,290 328,282" style="fill:rgb(51,13,56)"/>
<polygon points="236,243 226,239 231,267" style="fill:rgb(50,5,46)"/>
<polygon points="226,239 216,243 231,267" style="fill:rgb(133,69,70)"/>
<polygon points="338,254 300,238 321,277" style="fill:rgb(252,204,88)"/>
<polygon points="321,277 300,238 271,262" style="fill:rgb(255,206,90)"/>
<polygon points="236,243 253,210 226,239" style="fill:rgb(56,18,54)"/>
<polygon points="300,384 315,366 264,365" style="fill:rgb(250,136,86)"/>
<polygon points="190,269 186,279 219,283" style="fill:rgb(55,18,66)"/>
<polygon points="333,324 341,290 322,306" style="fill:rgb(58,17,53)"/>
<polygon points="328,282 336,265 321,277" style="fill:rgb(76,41,78)"/>
<polygon points="194,250 190,269 231,267" style="fill:rgb(108,189,233)"/>
<polygon points="165,268 181,289 186,279" style="fill:rgb(247,222,210)"/>
<polygon points="186,279 181,289 219,283" style="fill:rgb(240,219,215)"/>
<polygon points="346,270 336,265 328,282" style="fill:rgb(230,227,238)"/>
<polygon points="262,379 300,384 264,365" style="fill:rgb(61,12,49)"/>
<polygon points="217,214 203,243 216,243" style="fill:rgb(72,21,49)"/>
<polygon points="216,243 194,250 231,267" style="fill:rgb(46,14,63)"/>
<polygon points="203,243 194,250 216,243" style="fill:rgb(56,11,54)"/>
<polygon points="190,269 178,262 186,279" style="fill:rgb(42,7,60)"/>
<polygon points="341,290 346,270 328,282" style="fill:rgb(230,226,235)"/>
<polygon points="336,265 338,254 321,277" style="fill:rgb(90,42,48)"/>
<polygon points="358,272 346,270 341,290" style="fill:rgb(82,50,83)"/>
<polygon points="346,270 338,254 336,265" style="fill:rgb(95,56,72)"/>
<polygon points="165,268 178,262 150,238" style="fill:rgb(45,18,71)"/>
<polygon points="194,250 178,262 190,269" style="fill:rgb(104,183,233)"/>
<polygon points="275,205 270,212 300,238" style="fill:rgb(83,40,47)"/>
<polygon points="300,238 270,212 271,262" style="fill:rgb(253,204,90)"/>
<polygon points="226,239 217,214 216,243" style="fill:rgb(245,136,96)"/>
<polygon points="367,356 357,312 333,324" style="fill:rgb(250,199,89)"/>
<polygon points="333,324 357,312 341,290" style="fill:rgb(60,19,53)"/>
<polygon points="262,379 296,396 300,384" style="fill:rgb(55,10,51)"/>
<polygon points="300,384 338,391 315,366" style="fill:rgb(249,132,88)"/>
<polygon points="315,366 367,356 333,324" style="fill:rgb(255,204,91)"/>
<polygon points="219,407 262,379 243,364" style="fill:rgb(75,32,64)"/>
<polygon points="262,379 271,402 296,396" style="fill:rgb(246,162,87)"/>
<polygon points="270,212 253,210 236,243" style="fill:rgb(246,241,233)"/>
<polygon points="327,230 321,227 300,238" style="fill:rgb(81,36,44)"/>
<polygon points="155,272 162,301 181,289" style="fill:rgb(144,91,118)"/>
<polygon points="181,289 162,301 192,327" style="fill:rgb(118,74,112)"/>
<polygon points="192,327 194,382 243,364" style="fill:rgb(148,99,120)"/>
<polygon points="338,254 327,230 300,238" style="fill:rgb(253,204,91)"/>
<polygon points="369,242 327,230 338,254" style="fill:rgb(254,204,89)"/>
<polygon points="184,376 194,382 192,327" style="fill:rgb(128,80,111)"/>
<polygon points="271,402 280,407 296,396" style="fill:rgb(234,161,82)"/>
<polygon points="277,435 280,407 271,402" style="fill:rgb(70,21,41)"/>
<polygon points="357,312 358,272 341,290" style="fill:rgb(58,17,52)"/>
<polygon points="346,270 358,272 338,254" style="fill:rgb(82,33,51)"/>
<polygon points="293,190 275,205 300,238" style="fill:rgb(141,94,113)"/>
<polygon points="270,212 267,195 253,210" style="fill:rgb(232,226,229)"/>
<polygon points="244,204 226,239 253,210" style="fill:rgb(56,13,41)"/>
<polygon points="244,204 217,214 226,239" style="fill:rgb(249,178,91)"/>
<polygon points="203,243 162,224 194,250" style="fill:rgb(47,9,60)"/>
<polygon points="139,333 184,376 192,327" style="fill:rgb(151,97,117)"/>
<polygon points="162,224 178,262 194,250" style="fill:rgb(105,183,234)"/>
<polygon points="178,262 165,268 186,279" style="fill:rgb(55,16,62)"/>
<polygon points="260,188 244,204 253,210" style="fill:rgb(57,18,50)"/>
<polygon points="205,413 219,407 194,382" style="fill:rgb(70,27,78)"/>
<polygon points="194,382 219,407 243,364" style="fill:rgb(96,49,101)"/>
<polygon points="155,272 151,310 162,301" style="fill:rgb(61,26,74)"/>
<polygon points="162,301 151,310 192,327" style="fill:rgb(46,10,59)"/>
<polygon points="293,190 267,195 275,205" style="fill:rgb(233,170,149)"/>
<polygon points="275,205 267,195 270,212" style="fill:rgb(101,55,76)"/>
<polygon points="234,185 208,203 217,214" style="fill:rgb(68,24,50)"/>
<polygon points="260,188 267,195 268,179" style="fill:rgb(45,8,54)"/>
<polygon points="138,268 155,272 143,245" style="fill:rgb(58,25,70)"/>
<polygon points="165,268 155,272 181,289" style="fill:rgb(244,169,138)"/>
<polygon points="343,403 338,391 296,396" style="fill:rgb(49,6,53)"/>
<polygon points="296,396 338,391 300,384" style="fill:rgb(60,12,47)"/>
<polygon points="338,391 367,356 315,366" style="fill:rgb(253,139,88)"/>
<polygon points="382,265 369,242 358,272" style="fill:rgb(251,201,90)"/>
<polygon points="234,185 217,214 244,204" style="fill:rgb(246,206,128)"/>
<polygon points="217,214 208,203 203,243" style="fill:rgb(65,20,42)"/>
<polygon points="293,190 300,238 321,227" style="fill:rgb(138,90,110)"/>
<polygon points="267,195 260,188 253,210" style="fill:rgb(50,13,52)"/>
<polygon points="189,415 205,413 194,382" style="fill:rgb(74,27,78)"/>
<polygon points="264,448 277,435 271,402" style="fill:rgb(56,11,42)"/>
<polygon points="299,172 293,190 341,165" style="fill:rgb(240,199,180)"/>
<polygon points="135,352 171,392 184,376" style="fill:rgb(59,15,53)"/>
<polygon points="184,376 171,392 194,382" style="fill:rgb(186,127,121)"/>
<polygon points="228,169 234,185 260,188" style="fill:rgb(54,17,58)"/>
<polygon points="260,188 234,185 244,204" style="fill:rgb(238,230,225)"/>
<polygon points="382,265 358,272 357,312" style="fill:rgb(250,198,88)"/>
<polygon points="358,272 369,242 338,254" style="fill:rgb(251,200,87)"/>
<polygon points="317,156 299,172 341,165" style="fill:rgb(55,12,60)"/>
<polygon points="119,333 139,333 151,310" style="fill:rgb(47,21,69)"/>
<polygon points="151,310 139,333 192,327" style="fill:rgb(52,18,64)"/>
<polygon points="344,414 343,403 296,396" style="fill:rgb(222,111,90)"/>
<polygon points="338,391 375,384 367,356" style="fill:rgb(250,133,91)"/>
<polygon points="302,432 296,396 280,407" style="fill:rgb(254,142,83)"/>
<polygon points="398,312 382,265 357,312" style="fill:rgb(255,204,87)"/>
<polygon points="286,180 268,179 267,195" style="fill:rgb(58,20,65)"/>
<polygon points="264,448 271,402 219,407" style="fill:rgb(253,200,87)"/>
<polygon points="299,172 286,180 293,190" style="fill:rgb(228,205,204)"/>
<polygon points="293,190 286,180 267,195" style="fill:rgb(250,232,224)"/>
<polygon points="226,182 199,194 208,203" style="fill:rgb(245,211,139)"/>
<polygon points="165,211 162,224 203,243" style="fill:rgb(66,26,53)"/>
<polygon points="165,211 203,243 208,203" style="fill:rgb(246,165,88)"/>
<polygon points="155,272 138,268 151,310" style="fill:rgb(53,30,80)"/>
<polygon points="143,245 155,272 165,268" style="fill:rgb(196,141,136)"/>
<polygon points="228,169 226,182 234,185" style="fill:rgb(56,15,53)"/>
<polygon points="234,185 226,182 208,203" style="fill:rgb(59,16,45)"/>
<polygon points="171,392 189,415 194,382" style="fill:rgb(92,43,99)"/>
<polygon points="205,413 215,430 219,407" style="fill:rgb(57,16,46)"/>
<polygon points="162,224 150,238 178,262" style="fill:rgb(111,201,251)"/>
<polygon points="277,435 302,432 280,407" style="fill:rgb(250,141,87)"/>
<polygon points="205,435 215,430 205,413" style="fill:rgb(57,12,50)"/>
<polygon points="112,241 143,245 109,215" style="fill:rgb(117,206,252)"/>
<polygon points="150,238 143,245 165,268" style="fill:rgb(49,14,60)"/>
<polygon points="119,333 135,352 139,333" style="fill:rgb(48,15,61)"/>
<polygon points="139,333 135,352 184,376" style="fill:rgb(82,38,86)"/>
<polygon points="171,392 157,412 189,415" style="fill:rgb(85,34,67)"/>
<polygon points="302,432 344,414 296,396" style="fill:rgb(250,133,86)"/>
<polygon points="343,403 375,384 338,391" style="fill:rgb(60,10,48)"/>
<polygon points="419,344 398,312 367,356" style="fill:rgb(253,139,87)"/>
<polygon points="367,356 398,312 357,312" style="fill:rgb(254,203,89)"/>
<polygon points="199,194 165,211 208,203" style="fill:rgb(253,196,90)"/>
<polygon points="162,224 147,190 150,238" style="fill:rgb(112,202,250)"/>
<polygon points="375,398 375,384 343,403" style="fill:rgb(60,12,55)"/>
<polygon points="382,265 383,243 369,242" style="fill:rgb(59,17,44)"/>
<polygon points="371,203 321,227 327,230" style="fill:rgb(68,19,46)"/>
<polygon points="395,262 383,243 382,265" style="fill:rgb(62,14,42)"/>
<polygon points="372,209 327,230 369,242" style="fill:rgb(248,198,91)"/>
<polygon points="286,180 289,166 268,179" style="fill:rgb(40,12,64)"/>
<polygon points="268,179 228,169 260,188" style="fill:rgb(47,26,75)"/>
<polygon points="189,415 205,435 205,413" style="fill:rgb(225,120,91)"/>
<polygon points="215,430 264,448 219,407" style="fill:rgb(253,202,88)"/>
<polygon points="174,430 205,435 189,415" style="fill:rgb(90,32,55)"/>
<polygon points="401,277 395,262 382,265" style="fill:rgb(66,14,40)"/>
<polygon points="258,466 264,448 217,466" style="fill:rgb(249,164,80)"/>
<polygon points="277,435 274,448 302,432" style="fill:rgb(58,13,48)"/>
<polygon points="264,448 274,448 277,435" style="fill:rgb(42,4,51)"/>
<polygon points="302,432 324,438 344,414" style="fill:rgb(65,17,46)"/>
<polygon points="271,129 228,169 268,179" style="fill:rgb(115,203,253)"/>
<polygon points="226,182 198,160 199,194" style="fill:rgb(249,212,122)"/>
<polygon points="158,165 147,190 165,211" style="fill:rgb(66,23,58)"/>
<polygon points="398,312 401,277 382,265" style="fill:rgb(251,166,86)"/>
<polygon points="274,448 312,441 302,432" style="fill:rgb(45,20,65)"/>
<polygon points="299,172 289,166 286,180" style="fill:rgb(47,6,60)"/>
<polygon points="112,241 121,277 138,268" style="fill:rgb(247,253,254)"/>
<polygon points="138,268 121,277 151,310" style="fill:rgb(114,200,249)"/>
<polygon points="112,241 138,268 143,245" style="fill:rgb(122,207,249)"/>
<polygon points="312,441 324,438 302,432" style="fill:rgb(46,11,51)"/>
<polygon points="344,414 375,398 343,403" style="fill:rgb(246,127,94)"/>
<polygon points="106,307 119,333 151,310" style="fill:rgb(115,197,246)"/>
<polygon points="384,428 375,398 344,414" style="fill:rgb(247,127,89)"/>
<polygon points="375,384 401,368 367,356" style="fill:rgb(251,138,93)"/>
<polygon points="382,219 369,242 383,243" style="fill:rgb(70,24,46)"/>
<polygon points="382,219 372,209 369,242" style="fill:rgb(57,17,47)"/>
<polygon points="299,172 317,156 289,166" style="fill:rgb(40,12,65)"/>
<polygon points="118,351 122,354 135,352" style="fill:rgb(76,85,133)"/>
<polygon points="135,352 157,412 171,392" style="fill:rgb(141,93,74)"/>
<polygon points="114,407 157,412 135,352" style="fill:rgb(243,199,101)"/>
<polygon points="382,219 383,243 435,237" style="fill:rgb(253,170,89)"/>
<polygon points="392,200 382,219 427,207" style="fill:rgb(252,204,95)"/>
<polygon points="384,428 384,392 375,398" style="fill:rgb(52,9,54)"/>
<polygon points="375,398 384,392 375,384" style="fill:rgb(42,6,54)"/>
<polygon points="119,333 118,351 135,352" style="fill:rgb(73,72,121)"/>
<polygon points="109,400 114,407 135,352" style="fill:rgb(54,17,53)"/>
<polygon points="103,370 118,351 94,363" style="fill:rgb(39,8,60)"/>
<polygon points="392,200 371,203 372,209" style="fill:rgb(57,16,52)"/>
<polygon points="372,209 371,203 327,230" style="fill:rgb(68,18,39)"/>
<polygon points="157,412 174,430 189,415" style="fill:rgb(251,133,88)"/>
<polygon points="217,466 264,448 215,430" style="fill:rgb(250,199,87)"/>
<polygon points="384,392 401,368 375,384" style="fill:rgb(59,11,49)"/>
<polygon points="398,312 428,279 401,277" style="fill:rgb(250,130,88)"/>
<polygon points="121,277 106,307 151,310" style="fill:rgb(117,205,252)"/>
<polygon points="161,482 178,442 146,477" style="fill:rgb(108,182,234)"/>
<polygon points="174,430 178,442 205,435" style="fill:rgb(55,12,51)"/>
<polygon points="264,448 271,468 274,448" style="fill:rgb(41,16,63)"/>
<polygon points="274,448 271,468 312,441" style="fill:rgb(112,199,248)"/>
<polygon points="330,465 339,459 324,438" style="fill:rgb(57,14,44)"/>
<polygon points="217,466 215,430 205,435" style="fill:rgb(49,9,44)"/>
<polygon points="271,129 211,156 228,169" style="fill:rgb(114,202,252)"/>
<polygon points="228,169 211,156 226,182" style="fill:rgb(47,18,63)"/>
<polygon points="211,156 198,160 226,182" style="fill:rgb(75,31,51)"/>
<polygon points="109,215 143,245 150,238" style="fill:rgb(110,200,249)"/>
<polygon points="341,165 293,190 321,227" style="fill:rgb(160,108,121)"/>
<polygon points="289,166 271,129 268,179" style="fill:rgb(114,202,251)"/>
<polygon points="258,466 271,468 264,448" style="fill:rgb(57,14,51)"/>
<polygon points="414,372 419,344 401,368" style="fill:rgb(57,15,51)"/>
<polygon points="401,368 419,344 367,356" style="fill:rgb(253,138,91)"/>
<polygon points="371,203 341,165 321,227" style="fill:rgb(152,102,120)"/>
<polygon points="147,190 162,224 165,211" style="fill:rgb(44,24,75)"/>
<polygon points="121,277 79,265 106,307" style="fill:rgb(243,251,253)"/>
<polygon points="158,165 165,211 199,194" style="fill:rgb(248,184,92)"/>
<polygon points="207,470 217,466 205,435" style="fill:rgb(49,5,49)"/>
<polygon points="258,466 255,501 271,468" style="fill:rgb(45,15,65)"/>
<polygon points="430,410 414,372 384,392" style="fill:rgb(113,200,249)"/>
<polygon points="384,392 414,372 401,368" style="fill:rgb(40,11,59)"/>
<polygon points="432,346 429,318 419,344" style="fill:rgb(54,10,45)"/>
<polygon points="419,344 429,318 398,312" style="fill:rgb(250,134,88)"/>
<polygon points="435,237 383,243 395,262" style="fill:rgb(250,142,86)"/>
<polygon points="382,219 392,200 372,209" style="fill:rgb(61,20,47)"/>
<polygon points="388,168 348,155 341,165" style="fill:rgb(45,15,67)"/>
<polygon points="433,267 395,262 401,277" style="fill:rgb(67,21,46)"/>
<polygon points="429,318 428,279 398,312" style="fill:rgb(250,134,89)"/>
<polygon points="303,127 289,139 317,156" style="fill:rgb(116,201,250)"/>
<polygon points="317,156 289,139 289,166" style="fill:rgb(113,196,247)"/>
<polygon points="330,465 324,438 312,441" style="fill:rgb(41,20,63)"/>
<polygon points="324,438 339,459 344,414" style="fill:rgb(223,112,82)"/>
<polygon points="94,363 118,351 119,333" style="fill:rgb(42,14,65)"/>
<polygon points="118,351 103,370 122,354" style="fill:rgb(110,170,219)"/>
<polygon points="146,477 178,442 174,430" style="fill:rgb(46,20,66)"/>
<polygon points="339,459 384,428 344,414" style="fill:rgb(251,134,86)"/>
<polygon points="178,442 207,470 205,435" style="fill:rgb(207,103,78)"/>
<polygon points="217,466 212,484 258,466" style="fill:rgb(93,42,68)"/>
<polygon points="212,484 207,470 181,495" style="fill:rgb(46,14,67)"/>
<polygon points="271,468 330,465 312,441" style="fill:rgb(110,204,252)"/>
<polygon points="414,372 432,346 419,344" style="fill:rgb(43,21,69)"/>
<polygon points="440,278 433,267 428,279" style="fill:rgb(47,16,60)"/>
<polygon points="440,381 432,346 414,372" style="fill:rgb(113,203,252)"/>
<polygon points="389,182 341,165 371,203" style="fill:rgb(155,102,119)"/>
<polygon points="341,165 348,155 317,156" style="fill:rgb(44,13,66)"/>
<polygon points="198,160 178,153 199,194" style="fill:rgb(254,213,110)"/>
<polygon points="169,135 178,153 188,115" style="fill:rgb(251,247,237)"/>
<polygon points="178,153 198,160 188,115" style="fill:rgb(254,210,104)"/>
<polygon points="440,316 428,279 429,318" style="fill:rgb(59,13,48)"/>
<polygon points="428,279 433,267 401,277" style="fill:rgb(58,11,47)"/>
<polygon points="178,153 158,165 199,194" style="fill:rgb(252,237,197)"/>
<polygon points="147,190 109,215 150,238" style="fill:rgb(113,206,254)"/>
<polygon points="82,360 94,363 119,333" style="fill:rgb(118,195,246)"/>
<polygon points="109,400 135,352 122,354" style="fill:rgb(46,15,66)"/>
<polygon points="82,360 119,333 106,307" style="fill:rgb(124,207,253)"/>
<polygon points="286,108 271,129 289,139" style="fill:rgb(243,198,106)"/>
<polygon points="289,139 271,129 289,166" style="fill:rgb(157,200,205)"/>
<polygon points="392,200 389,182 371,203" style="fill:rgb(76,34,71)"/>
<polygon points="404,190 389,182 392,200" style="fill:rgb(54,17,58)"/>
<polygon points="432,346 440,316 429,318" style="fill:rgb(41,16,63)"/>
<polygon points="147,162 109,215 147,190" style="fill:rgb(114,205,253)"/>
<polygon points="35,293 82,360 106,307" style="fill:rgb(116,205,254)"/>
<polygon points="109,400 122,354 103,370" style="fill:rgb(104,172,219)"/>
<polygon points="105,405 109,400 94,406" style="fill:rgb(93,153,202)"/>
<polygon points="440,316 440,278 428,279" style="fill:rgb(42,20,68)"/>
<polygon points="427,207 404,190 392,200" style="fill:rgb(252,247,238)"/>
<polygon points="435,237 395,262 433,267" style="fill:rgb(249,171,85)"/>
<polygon points="388,168 360,149 348,155" style="fill:rgb(114,193,244)"/>
<polygon points="161,482 207,470 178,442" style="fill:rgb(70,27,78)"/>
<polygon points="207,470 212,484 217,466" style="fill:rgb(43,7,55)"/>
<polygon points="271,468 307,500 330,465" style="fill:rgb(113,205,254)"/>
<polygon points="394,472 397,432 384,428" style="fill:rgb(66,22,48)"/>
<polygon points="384,428 397,432 384,392" style="fill:rgb(43,14,64)"/>
<polygon points="394,472 384,428 339,459" style="fill:rgb(254,204,92)"/>
<polygon points="348,155 303,127 317,156" style="fill:rgb(115,200,250)"/>
<polygon points="169,135 147,162 158,165" style="fill:rgb(57,19,51)"/>
<polygon points="158,165 147,162 147,190" style="fill:rgb(42,17,68)"/>
<polygon points="109,400 105,405 114,407" style="fill:rgb(44,6,53)"/>
<polygon points="146,477 174,430 133,474" style="fill:rgb(52,8,47)"/>
<polygon points="94,406 109,400 103,370" style="fill:rgb(110,194,239)"/>
<polygon points="388,168 341,165 389,182" style="fill:rgb(55,17,61)"/>
<polygon points="348,155 362,97 303,127" style="fill:rgb(120,204,248)"/>
<polygon points="481,248 435,237 433,267" style="fill:rgb(246,170,87)"/>
<polygon points="442,176 398,179 404,190" style="fill:rgb(49,27,74)"/>
<polygon points="404,190 398,179 389,182" style="fill:rgb(45,7,54)"/>
<polygon points="79,265 121,277 112,241" style="fill:rgb(255,255,255)"/>
<polygon points="81,402 94,406 103,370" style="fill:rgb(46,24,76)"/>
<polygon points="398,179 388,168 389,182" style="fill:rgb(46,28,81)"/>
<polygon points="109,215 79,265 112,241" style="fill:rgb(231,247,252)"/>
<polygon points="430,410 440,381 414,372" style="fill:rgb(120,206,253)"/>
<polygon points="493,327 474,303 440,316" style="fill:rgb(130,195,240)"/>
<polygon points="435,237 427,207 382,219" style="fill:rgb(255,205,89)"/>
<polygon points="398,179 442,176 388,168" style="fill:rgb(115,194,244)"/>
<polygon points="212,484 255,501 258,466" style="fill:rgb(77,35,90)"/>
<polygon points="81,402 103,370 94,363" style="fill:rgb(51,12,63)"/>
<polygon points="105,405 97,430 114,407" style="fill:rgb(40,13,65)"/>
<polygon points="199,113 198,160 211,156" style="fill:rgb(70,22,50)"/>
<polygon points="178,153 169,135 158,165" style="fill:rgb(247,225,183)"/>
<polygon points="199,113 211,156 209,103" style="fill:rgb(46,18,69)"/>
<polygon points="397,432 430,410 384,392" style="fill:rgb(137,209,252)"/>
<polygon points="330,465 353,483 339,459" style="fill:rgb(51,11,42)"/>
<polygon points="397,432 426,431 430,410" style="fill:rgb(220,235,252)"/>
<polygon points="350,501 353,483 330,465" style="fill:rgb(49,27,73)"/>
<polygon points="255,501 307,500 271,468" style="fill:rgb(114,201,252)"/>
<polygon points="306,69 286,108 303,127" style="fill:rgb(122,203,249)"/>
<polygon points="303,127 286,108 289,139" style="fill:rgb(221,200,133)"/>
<polygon points="133,474 157,412 104,458" style="fill:rgb(251,148,87)"/>
<polygon points="212,484 228,507 255,501" style="fill:rgb(46,19,73)"/>
<polygon points="181,495 228,507 212,484" style="fill:rgb(121,192,244)"/>
<polygon points="255,501 253,530 307,500" style="fill:rgb(125,149,232)"/>
<polygon points="209,103 211,156 271,129" style="fill:rgb(115,202,251)"/>
<polygon points="82,360 81,402 94,363" style="fill:rgb(83,47,90)"/>
<polygon points="94,406 97,430 105,405" style="fill:rgb(112,197,243)"/>
<polygon points="71,423 81,402 35,421" style="fill:rgb(49,18,67)"/>
<polygon points="161,482 181,495 207,470" style="fill:rgb(63,26,84)"/>
<polygon points="199,113 188,115 198,160" style="fill:rgb(244,202,123)"/>
<polygon points="406,476 426,431 397,432" style="fill:rgb(118,203,250)"/>
<polygon points="485,381 432,346 440,381" style="fill:rgb(116,205,253)"/>
<polygon points="71,423 97,430 94,406" style="fill:rgb(113,198,248)"/>
<polygon points="133,474 174,430 157,412" style="fill:rgb(250,134,88)"/>
<polygon points="161,482 142,530 181,495" style="fill:rgb(118,172,240)"/>
<polygon points="188,115 160,128 169,135" style="fill:rgb(60,23,64)"/>
<polygon points="169,135 160,128 147,162" style="fill:rgb(42,15,64)"/>
<polygon points="147,162 35,134 109,215" style="fill:rgb(125,208,253)"/>
<polygon points="35,134 35,293 79,265" style="fill:rgb(131,203,249)"/>
<polygon points="199,113 185,102 188,115" style="fill:rgb(54,15,60)"/>
<polygon points="188,115 185,102 160,128" style="fill:rgb(47,22,72)"/>
<polygon points="286,108 209,103 271,129" style="fill:rgb(124,203,246)"/>
<polygon points="104,458 157,412 114,407" style="fill:rgb(254,205,89)"/>
<polygon points="146,477 120,507 161,482" style="fill:rgb(114,194,246)"/>
<polygon points="462,198 427,207 435,237" style="fill:rgb(254,207,98)"/>
<polygon points="462,198 438,190 427,207" style="fill:rgb(255,252,245)"/>
<polygon points="427,207 438,190 404,190" style="fill:rgb(246,242,245)"/>
<polygon points="388,168 382,123 360,149" style="fill:rgb(117,204,251)"/>
<polygon points="360,149 362,97 348,155" style="fill:rgb(145,204,220)"/>
<polygon points="383,525 394,472 353,483" style="fill:rgb(123,78,99)"/>
<polygon points="353,483 394,472 339,459" style="fill:rgb(249,197,88)"/>
<polygon points="440,316 474,303 440,278" style="fill:rgb(119,199,248)"/>
<polygon points="440,278 481,248 433,267" style="fill:rgb(55,18,49)"/>
<polygon points="493,327 440,316 432,346" style="fill:rgb(114,203,252)"/>
<polygon points="493,327 432,346 485,381" style="fill:rgb(115,205,253)"/>
<polygon points="325,530 350,501 307,500" style="fill:rgb(125,152,234)"/>
<polygon points="307,500 350,501 330,465" style="fill:rgb(113,204,252)"/>
<polygon points="97,430 104,458 114,407" style="fill:rgb(65,25,54)"/>
<polygon points="92,461 104,458 97,430" style="fill:rgb(39,12,61)"/>
<polygon points="209,103 185,102 199,113" style="fill:rgb(52,26,75)"/>
<polygon points="442,176 382,123 388,168" style="fill:rgb(114,204,254)"/>
<polygon points="405,515 406,476 394,472" style="fill:rgb(46,15,69)"/>
<polygon points="394,472 406,476 397,432" style="fill:rgb(42,14,63)"/>
<polygon points="457,180 442,176 438,190" style="fill:rgb(52,18,58)"/>
<polygon points="438,190 442,176 404,190" style="fill:rgb(46,11,54)"/>
<polygon points="216,530 253,530 228,507" style="fill:rgb(120,149,232)"/>
<polygon points="228,507 253,530 255,501" style="fill:rgb(122,144,227)"/>
<polygon points="216,530 228,507 181,495" style="fill:rgb(125,150,236)"/>
<polygon points="29,390 81,402 82,360" style="fill:rgb(161,101,115)"/>
<polygon points="81,402 71,423 94,406" style="fill:rgb(43,16,68)"/>
<polygon points="486,257 481,248 440,278" style="fill:rgb(45,14,63)"/>
<polygon points="35,134 79,265 109,215" style="fill:rgb(128,201,247)"/>
<polygon points="79,265 35,293 106,307" style="fill:rgb(121,208,253)"/>
<polygon points="216,530 181,495 142,530" style="fill:rgb(120,160,238)"/>
<polygon points="221,541 216,530 141,540" style="fill:rgb(69,17,53)"/>
<polygon points="482,212 462,198 435,237" style="fill:rgb(255,204,89)"/>
<polygon points="71,423 92,461 97,430" style="fill:rgb(115,201,251)"/>
<polygon points="91,487 120,507 133,474" style="fill:rgb(76,34,87)"/>
<polygon points="474,303 486,257 440,278" style="fill:rgb(113,198,248)"/>
<polygon points="481,248 482,212 435,237" style="fill:rgb(251,145,86)"/>
<polygon points="35,293 36,359 82,360" style="fill:rgb(120,197,245)"/>
<polygon points="253,530 325,530 307,500" style="fill:rgb(122,148,231)"/>
<polygon points="350,501 383,525 353,483" style="fill:rgb(47,11,56)"/>
<polygon points="485,381 430,410 499,416" style="fill:rgb(224,236,251)"/>
<polygon points="485,381 440,381 430,410" style="fill:rgb(222,236,252)"/>
<polygon points="474,303 494,284 486,257" style="fill:rgb(125,196,243)"/>
<polygon points="353,68 362,97 473,69" style="fill:rgb(150,211,251)"/>
<polygon points="382,123 362,97 360,149" style="fill:rgb(214,202,140)"/>
<polygon points="306,69 178,82 209,103" style="fill:rgb(133,209,253)"/>
<polygon points="209,103 178,82 185,102" style="fill:rgb(114,195,245)"/>
<polygon points="462,198 457,180 438,190" style="fill:rgb(248,244,244)"/>
<polygon points="442,176 460,160 382,123" style="fill:rgb(131,208,252)"/>
<polygon points="471,161 457,180 482,172" style="fill:rgb(250,245,244)"/>
<polygon points="515,304 494,284 474,303" style="fill:rgb(237,135,146)"/>
<polygon points="221,541 252,541 253,530" style="fill:rgb(67,14,52)"/>
<polygon points="253,530 324,540 325,530" style="fill:rgb(48,12,62)"/>
<polygon points="499,416 430,410 496,438" style="fill:rgb(227,236,251)"/>
<polygon points="26,127 26,302 35,293" style="fill:rgb(64,24,48)"/>
<polygon points="35,293 26,349 36,359" style="fill:rgb(54,24,62)"/>
<polygon points="26,127 25,303 26,302" style="fill:rgb(170,119,88)"/>
<polygon points="26,302 26,349 35,293" style="fill:rgb(65,24,51)"/>
<polygon points="120,507 146,477 133,474" style="fill:rgb(37,9,64)"/>
<polygon points="216,530 221,541 253,530" style="fill:rgb(46,11,63)"/>
<polygon points="405,515 439,467 406,476" style="fill:rgb(114,200,252)"/>
<polygon points="406,476 439,467 426,431" style="fill:rgb(118,206,253)"/>
<polygon points="25,303 26,349 26,302" style="fill:rgb(171,121,92)"/>
<polygon points="36,359 29,390 82,360" style="fill:rgb(69,55,99)"/>
<polygon points="37,483 91,487 92,461" style="fill:rgb(115,202,252)"/>
<polygon points="505,216 482,212 481,248" style="fill:rgb(246,161,86)"/>
<polygon points="505,216 481,248 515,226" style="fill:rgb(58,20,53)"/>
<polygon points="306,69 209,103 286,108" style="fill:rgb(123,205,252)"/>
<polygon points="185,102 178,82 160,128" style="fill:rgb(118,202,252)"/>
<polygon points="160,128 126,81 147,162" style="fill:rgb(117,203,252)"/>
<polygon points="252,541 324,540 253,530" style="fill:rgb(69,16,52)"/>
<polygon points="382,530 383,525 350,501" style="fill:rgb(69,73,128)"/>
<polygon points="362,97 306,69 303,127" style="fill:rgb(120,206,254)"/>
<polygon points="91,487 133,474 104,458" style="fill:rgb(91,46,76)"/>
<polygon points="26,349 27,379 36,359" style="fill:rgb(59,20,51)"/>
<polygon points="92,461 91,487 104,458" style="fill:rgb(38,8,58)"/>
<polygon points="471,161 460,160 457,180" style="fill:rgb(57,26,66)"/>
<polygon points="457,180 460,160 442,176" style="fill:rgb(44,21,69)"/>
<polygon points="27,379 29,390 36,359" style="fill:rgb(49,12,54)"/>
<polygon points="37,483 92,461 71,423" style="fill:rgb(115,205,254)"/>
<polygon points="221,541 247,555 252,541" style="fill:rgb(251,149,103)"/>
<polygon points="252,541 247,555 324,540" style="fill:rgb(252,147,102)"/>
<polygon points="158,590 247,555 221,541" style="fill:rgb(254,186,101)"/>
<polygon points="382,530 350,501 325,530" style="fill:rgb(118,151,229)"/>
<polygon points="383,525 405,515 394,472" style="fill:rgb(79,40,80)"/>
<polygon points="493,327 515,304 474,303" style="fill:rgb(244,131,139)"/>
<polygon points="515,226 481,248 486,257" style="fill:rgb(43,18,65)"/>
<polygon points="553,311 515,304 552,365" style="fill:rgb(120,184,246)"/>
<polygon points="141,540 142,530 114,530" style="fill:rgb(39,12,65)"/>
<polygon points="120,507 142,530 161,482" style="fill:rgb(121,170,243)"/>
<polygon points="324,540 382,530 325,530" style="fill:rgb(45,12,61)"/>
<polygon points="383,525 382,530 405,515" style="fill:rgb(104,146,209)"/>
<polygon points="443,530 382,530 449,540" style="fill:rgb(46,11,61)"/>
<polygon points="353,68 306,69 362,97" style="fill:rgb(148,210,251)"/>
<polygon points="353,68 316,59 306,69" style="fill:rgb(49,19,68)"/>
<polygon points="306,69 164,68 178,82" style="fill:rgb(185,218,246)"/>
<polygon points="29,390 35,421 81,402" style="fill:rgb(96,47,94)"/>
<polygon points="482,172 457,180 462,198" style="fill:rgb(254,249,238)"/>
<polygon points="463,109 362,97 382,123" style="fill:rgb(116,204,252)"/>
<polygon points="482,172 462,198 482,212" style="fill:rgb(253,205,94)"/>
<polygon points="114,530 98,503 76,528" style="fill:rgb(116,186,245)"/>
<polygon points="91,487 98,503 120,507" style="fill:rgb(39,9,66)"/>
<polygon points="463,109 382,123 460,160" style="fill:rgb(120,204,252)"/>
<polygon points="316,59 164,68 306,69" style="fill:rgb(52,19,69)"/>
<polygon points="178,82 126,81 160,128" style="fill:rgb(118,205,253)"/>
<polygon points="516,176 482,172 482,212" style="fill:rgb(250,181,88)"/>
<polygon points="515,226 486,257 552,264" style="fill:rgb(112,199,252)"/>
<polygon points="29,390 26,418 35,421" style="fill:rgb(60,19,63)"/>
<polygon points="35,421 37,483 71,423" style="fill:rgb(116,200,249)"/>
<polygon points="0,385 26,418 29,390" style="fill:rgb(66,22,59)"/>
<polygon points="0,385 29,390 27,379" style="fill:rgb(66,24,55)"/>
<polygon points="0,385 27,379 26,349" style="fill:rgb(225,173,93)"/>
<polygon points="496,438 430,410 426,431" style="fill:rgb(227,236,252)"/>
<polygon points="552,365 515,304 493,327" style="fill:rgb(118,201,250)"/>
<polygon points="496,438 426,431 439,467" style="fill:rgb(225,236,252)"/>
<polygon points="114,530 142,530 120,507" style="fill:rgb(118,179,243)"/>
<polygon points="142,530 141,540 216,530" style="fill:rgb(41,13,64)"/>
<polygon points="141,69 126,81 178,82" style="fill:rgb(248,253,254)"/>
<polygon points="552,264 486,257 494,284" style="fill:rgb(117,199,249)"/>
<polygon points="505,216 516,176 482,212" style="fill:rgb(245,129,83)"/>
<polygon points="164,68 141,69 178,82" style="fill:rgb(245,241,247)"/>
<polygon points="146,59 141,69 164,68" style="fill:rgb(62,23,65)"/>
<polygon points="104,541 114,530 76,528" style="fill:rgb(47,17,67)"/>
<polygon points="98,503 114,530 120,507" style="fill:rgb(116,149,225)"/>
<polygon points="484,468 496,438 439,467" style="fill:rgb(222,235,252)"/>
<polygon points="552,365 493,327 485,381" style="fill:rgb(133,203,233)"/>
<polygon points="25,303 0,385 26,349" style="fill:rgb(254,201,100)"/>
<polygon points="76,528 98,503 91,487" style="fill:rgb(117,178,241)"/>
<polygon points="316,59 146,59 164,68" style="fill:rgb(66,24,57)"/>
<polygon points="141,69 106,68 126,81" style="fill:rgb(243,239,245)"/>
<polygon points="443,530 484,468 439,467" style="fill:rgb(117,204,253)"/>
<polygon points="443,530 439,467 405,515" style="fill:rgb(115,195,251)"/>
<polygon points="474,117 471,161 486,125" style="fill:rgb(236,224,201)"/>
<polygon points="474,117 460,160 471,161" style="fill:rgb(53,19,60)"/>
<polygon points="474,117 463,109 460,160" style="fill:rgb(45,23,70)"/>
<polygon points="37,483 35,421 26,484" style="fill:rgb(54,25,66)"/>
<polygon points="114,530 104,541 141,540" style="fill:rgb(67,18,55)"/>
<polygon points="141,540 158,590 221,541" style="fill:rgb(253,175,101)"/>
<polygon points="486,125 471,161 482,172" style="fill:rgb(253,245,220)"/>
<polygon points="102,58 106,68 141,69" style="fill:rgb(56,20,63)"/>
<polygon points="70,83 35,134 147,162" style="fill:rgb(119,205,253)"/>
<polygon points="70,83 147,162 126,81" style="fill:rgb(118,206,252)"/>
<polygon points="25,303 0,102 0,385" style="fill:rgb(254,200,98)"/>
<polygon points="26,484 35,421 26,418" style="fill:rgb(59,20,53)"/>
<polygon points="528,172 516,176 515,226" style="fill:rgb(49,35,82)"/>
<polygon points="515,226 516,176 505,216" style="fill:rgb(64,21,53)"/>
<polygon points="449,540 382,530 324,540" style="fill:rgb(53,7,49)"/>
<polygon points="382,530 443,530 405,515" style="fill:rgb(120,183,240)"/>
<polygon points="516,176 486,125 482,172" style="fill:rgb(250,193,92)"/>
<polygon points="474,117 495,111 463,109" style="fill:rgb(54,36,84)"/>
<polygon points="48,506 76,528 91,487" style="fill:rgb(114,197,250)"/>
<polygon points="552,365 499,416 552,421" style="fill:rgb(116,202,252)"/>
<polygon points="552,365 485,381 499,416" style="fill:rgb(116,204,253)"/>
<polygon points="515,304 552,264 494,284" style="fill:rgb(117,200,252)"/>
<polygon points="37,483 48,506 91,487" style="fill:rgb(114,202,252)"/>
<polygon points="553,311 552,264 515,304" style="fill:rgb(121,184,245)"/>
<polygon points="106,68 70,83 126,81" style="fill:rgb(249,253,254)"/>
<polygon points="0,385 26,484 26,418" style="fill:rgb(245,192,100)"/>
<polygon points="37,483 41,513 48,506" style="fill:rgb(50,29,75)"/>
<polygon points="146,59 102,58 141,69" style="fill:rgb(66,24,55)"/>
<polygon points="106,68 67,73 70,83" style="fill:rgb(245,242,246)"/>
<polygon points="0,0 102,58 146,59" style="fill:rgb(253,199,103)"/>
<polygon points="552,421 499,416 496,438" style="fill:rgb(211,232,251)"/>
<polygon points="40,101 26,127 35,134" style="fill:rgb(68,36,67)"/>
<polygon points="35,134 26,127 35,293" style="fill:rgb(53,22,55)"/>
<polygon points="553,177 528,172 515,226" style="fill:rgb(115,195,250)"/>
<polygon points="516,176 528,172 486,125" style="fill:rgb(112,70,74)"/>
<polygon points="498,554 449,540 324,540" style="fill:rgb(238,134,97)"/>
<polygon points="443,530 515,528 484,468" style="fill:rgb(116,201,252)"/>
<polygon points="552,491 552,421 496,438" style="fill:rgb(119,203,252)"/>
<polygon points="552,365 562,319 553,311" style="fill:rgb(53,33,82)"/>
<polygon points="553,311 562,265 552,264" style="fill:rgb(52,31,80)"/>
<polygon points="41,513 69,538 48,506" style="fill:rgb(64,23,55)"/>
<polygon points="48,506 69,538 76,528" style="fill:rgb(62,38,82)"/>
<polygon points="76,528 69,538 104,541" style="fill:rgb(77,26,57)"/>
<polygon points="104,541 158,590 141,540" style="fill:rgb(253,174,100)"/>
<polygon points="69,538 158,590 104,541" style="fill:rgb(252,173,99)"/>
<polygon points="247,555 498,554 324,540" style="fill:rgb(252,149,97)"/>
<polygon points="26,484 41,513 37,483" style="fill:rgb(64,24,56)"/>
<polygon points="67,73 40,101 70,83" style="fill:rgb(243,239,243)"/>
<polygon points="70,83 40,101 35,134" style="fill:rgb(239,244,248)"/>
<polygon points="562,319 562,265 553,311" style="fill:rgb(55,13,48)"/>
<polygon points="552,264 553,177 515,226" style="fill:rgb(117,183,247)"/>
<polygon points="102,58 67,73 106,68" style="fill:rgb(80,45,86)"/>
<polygon points="528,172 495,111 486,125" style="fill:rgb(52,28,70)"/>
<polygon points="486,125 495,111 474,117" style="fill:rgb(53,24,66)"/>
<polygon points="463,109 473,69 362,97" style="fill:rgb(122,207,254)"/>
<polygon points="62,62 29,100 40,101" style="fill:rgb(81,38,55)"/>
<polygon points="40,101 29,100 26,127" style="fill:rgb(78,35,52)"/>
<polygon points="552,491 496,438 484,468" style="fill:rgb(118,204,254)"/>
<polygon points="552,365 562,414 562,319" style="fill:rgb(54,16,53)"/>
<polygon points="102,58 62,62 67,73" style="fill:rgb(87,44,55)"/>
<polygon points="67,73 62,62 40,101" style="fill:rgb(90,54,74)"/>
<polygon points="486,58 473,69 498,68" style="fill:rgb(54,20,70)"/>
<polygon points="495,111 473,69 463,109" style="fill:rgb(117,198,247)"/>
<polygon points="353,68 486,58 316,59" style="fill:rgb(62,22,57)"/>
<polygon points="563,492 562,414 552,421" style="fill:rgb(58,18,54)"/>
<polygon points="552,421 562,414 552,365" style="fill:rgb(49,32,80)"/>
<polygon points="562,265 553,177 552,264" style="fill:rgb(51,32,80)"/>
<polygon points="528,172 552,109 495,111" style="fill:rgb(114,201,251)"/>
<polygon points="562,265 563,176 553,177" style="fill:rgb(54,15,45)"/>
<polygon points="536,84 518,73 495,111" style="fill:rgb(121,204,250)"/>
<polygon points="590,256 563,176 562,265" style="fill:rgb(248,138,96)"/>
<polygon points="590,256 562,265 562,319" style="fill:rgb(247,138,94)"/>
<polygon points="562,414 590,256 562,319" style="fill:rgb(247,139,93)"/>
<polygon points="29,100 0,102 26,127" style="fill:rgb(252,197,100)"/>
<polygon points="26,127 0,102 25,303" style="fill:rgb(254,199,99)"/>
<polygon points="62,62 0,102 29,100" style="fill:rgb(248,193,99)"/>
<polygon points="498,68 473,69 495,111" style="fill:rgb(138,210,252)"/>
<polygon points="473,69 486,58 353,68" style="fill:rgb(51,18,68)"/>
<polygon points="316,59 0,0 146,59" style="fill:rgb(254,198,102)"/>
<polygon points="518,73 498,68 495,111" style="fill:rgb(133,208,252)"/>
<polygon points="509,539 515,528 443,530" style="fill:rgb(51,17,68)"/>
<polygon points="498,554 509,539 449,540" style="fill:rgb(239,135,96)"/>
<polygon points="449,540 509,539 443,530" style="fill:rgb(57,7,49)"/>
<polygon points="590,590 498,554 247,555" style="fill:rgb(255,199,101)"/>
<polygon points="515,528 552,491 484,468" style="fill:rgb(114,201,251)"/>
<polygon points="562,414 578,543 590,256" style="fill:rgb(253,150,93)"/>
<polygon points="538,525 552,491 515,528" style="fill:rgb(57,40,86)"/>
<polygon points="538,525 515,528 509,539" style="fill:rgb(61,16,53)"/>
<polygon points="552,109 528,172 553,177" style="fill:rgb(118,180,247)"/>
<polygon points="498,68 522,62 486,58" style="fill:rgb(69,26,59)"/>
<polygon points="562,111 553,177 563,176" style="fill:rgb(58,17,50)"/>
<polygon points="562,111 552,109 553,177" style="fill:rgb(55,31,80)"/>
<polygon points="578,543 538,525 509,539" style="fill:rgb(250,149,95)"/>
<polygon points="552,109 536,84 495,111" style="fill:rgb(114,202,251)"/>
<polygon points="538,525 563,492 552,491" style="fill:rgb(87,34,60)"/>
<polygon points="552,491 563,492 552,421" style="fill:rgb(60,34,77)"/>
<polygon points="549,84 522,62 536,84" style="fill:rgb(75,33,55)"/>
<polygon points="536,84 522,62 518,73" style="fill:rgb(61,28,61)"/>
<polygon points="518,73 522,62 498,68" style="fill:rgb(62,31,67)"/>
<polygon points="590,256 562,111 563,176" style="fill:rgb(247,141,95)"/>
<polygon points="552,109 549,84 536,84" style="fill:rgb(59,31,71)"/>
<polygon points="562,111 549,84 552,109" style="fill:rgb(70,26,50)"/>
<polygon points="26,484 0,590 41,513" style="fill:rgb(253,198,98)"/>
<polygon points="41,513 0,590 69,538" style="fill:rgb(253,196,98)"/>
<polygon points="69,538 0,590 158,590" style="fill:rgb(254,198,99)"/>
<polygon points="0,385 0,590 26,484" style="fill:rgb(254,200,98)"/>
<polygon points="498,554 578,543 509,539" style="fill:rgb(254,154,95)"/>
<polygon points="538,525 578,543 563,492" style="fill:rgb(253,151,96)"/>
<polygon points="563,492 578,543 562,414" style="fill:rgb(247,144,96)"/>
<polygon points="102,58 0,0 62,62" style="fill:rgb(253,199,102)"/>
<polygon points="62,62 0,0 0,102" style="fill:rgb(255,199,100)"/>
<polygon points="590,0 0,0 316,59" style="fill:rgb(254,200,102)"/>
<polygon points="590,0 316,59 486,58" style="fill:rgb(254,198,102)"/>
<polygon points="158,590 590,590 247,555" style="fill:rgb(255,198,103)"/>
<polygon points="498,554 590,590 578,543" style="fill:rgb(254,198,101)"/>
<polygon points="578,543 590,590 590,256" style="fill:rgb(254,193,99)"/>
<polygon points="549,84 590,0 522,62" style="fill:rgb(254,198,100)"/>
<polygon points="522,62 590,0 486,58" style="fill:rgb(252,196,100)"/>
<polygon points="562,111 590,0 549,84" style="fill:rgb(253,198,101)"/>
<polygon points="590,256 590,0 562,111" style="fill:rgb(254,184,99)"/>
</svg>